<svg width="43" height="48" viewBox="0 0 43 48" fill="none" xmlns="http://www.w3.org/2000/svg">
<path d="M6.44998 46V43H36.55V46H6.44998ZM6.44998 5V2H36.55V5H6.44998ZM21.5 25.8C22.993 25.8 24.2472 25.2333 25.2625 24.1C26.2778 22.9667 26.7854 21.5667 26.7854 19.9C26.7854 18.2333 26.2778 16.8333 25.2625 15.7C24.2472 14.5667 22.993 14 21.5 14C20.0069 14 18.7528 14.5667 17.7375 15.7C16.7222 16.8333 16.2146 18.2333 16.2146 19.9C16.2146 21.5667 16.7222 22.9667 17.7375 24.1C18.7528 25.2333 20.0069 25.8 21.5 25.8ZM5.91248 40C5.19581 40 4.56873 39.7 4.03123 39.1C3.49373 38.5 3.22498 37.8 3.22498 37V11C3.22498 10.1333 3.49373 9.41667 4.03123 8.85C4.56873 8.28333 5.19581 8 5.91248 8H37.0875C37.8041 8 38.4312 8.3 38.9687 8.9C39.5062 9.5 39.775 10.2 39.775 11V37C39.775 37.8 39.5062 38.5 38.9687 39.1C38.4312 39.7 37.8041 40 37.0875 40H5.91248ZM9.85414 37C11.3771 34.9 13.1837 33.325 15.2739 32.275C17.3642 31.225 19.4396 30.7 21.5 30.7C23.5305 30.7 25.6133 31.225 27.7484 32.275C29.8835 33.325 31.6826 34.9 33.1458 37H37.0875V11H5.91248V37H9.85414ZM14.0646 37H29.025C28.0993 36 27.0168 35.2 25.7776 34.6C24.5383 34 23.1125 33.7 21.5 33.7C19.8875 33.7 18.4765 34 17.2672 34.6C16.0578 35.2 14.9903 36 14.0646 37ZM21.5 22.8C20.7833 22.8 20.1786 22.5167 19.6859 21.95C19.1932 21.3833 18.9468 20.7 18.9468 19.9C18.9468 19.1 19.1932 18.4167 19.6859 17.85C20.1786 17.2833 20.7833 17 21.5 17C22.2166 17 22.8213 17.2833 23.314 17.85C23.8067 18.4167 24.0531 19.1 24.0531 19.9C24.0531 20.7 23.8067 21.3833 23.314 21.95C22.8213 22.5167 22.2166 22.8 21.5 22.8Z" fill="black"/>
</svg>
